<?xml version="1.0" encoding="utf-8"?>
<!-- Generator: Adobe Illustrator 17.0.0, SVG Export Plug-In . SVG Version: 6.00 Build 0)  -->
<!DOCTYPE svg PUBLIC "-//W3C//DTD SVG 1.1//EN" "http://www.w3.org/Graphics/SVG/1.1/DTD/svg11.dtd">
<svg version="1.1" id="Layer_1" xmlns="http://www.w3.org/2000/svg" xmlns:xlink="http://www.w3.org/1999/xlink" x="0px" y="0px"
	 width="256px" height="256px" viewBox="0 0 256 256" enable-background="new 0 0 256 256" xml:space="preserve">
<g>
	<path fill="#5D5D5D" d="M127.592,241.616c-62.648,0-113.616-50.968-113.616-113.616S64.944,14.384,127.592,14.384
		S241.208,65.352,241.208,128S190.24,241.616,127.592,241.616z M127.592,25.335C70.981,25.335,24.927,71.391,24.927,128
		s46.055,102.665,102.665,102.665S230.257,184.609,230.257,128S184.203,25.335,127.592,25.335z"/>
</g>
<path fill="#5D5D5D" d="M82.014,137.468c0,0,2.041-0.061,5.866-0.176c3.828,0.024,9.485,0.007,16.636,0.925
	c1.79,0.209,3.66,0.555,5.637,0.853c1.948,0.435,4.018,0.791,6.124,1.387c4.249,1.051,8.756,2.617,13.41,4.699
	c4.649,2.09,9.412,4.786,14.105,8.059c4.665,3.296,9.254,7.16,13.92,11.027c4.676,3.846,9.53,7.674,15.005,10.032
	c2.73,1.187,5.602,2,8.6,2.399c1.515,0.127,3.029,0.299,4.593,0.262l1.039,0.013c0.407-0.03,0.923-0.044,1.243-0.086
	c0.521-0.079,1.189-0.178,1.815-0.358c2.496-0.661,4.604-2.118,6.219-4.269c1.625-2.137,2.71-4.936,3.251-7.936
	c1.06-6.035-0.038-12.856-3.027-18.444c-2.962-5.635-7.863-9.854-13.852-11.362c-3.022-0.789-6.15-0.968-9.634-0.647
	c-3.24,0.3-6.565,1.089-9.698,2.389c-6.327,2.569-12.189,7.076-17.868,12.305c-5.704,5.223-11.227,11.183-17.338,17.014
	c-6.095,5.815-12.891,11.61-21.135,15.881c-8.193,4.327-17.813,6.632-27.229,6.198c-3.271-0.273-5.847-0.95-8.473-1.983
	c-2.604-1.025-4.947-2.493-7.055-4.121c-4.227-3.292-7.303-7.398-9.569-11.613c-4.51-8.491-6.197-17.453-6.407-26.059
	c-0.2-8.625,1.143-16.985,3.628-24.735c2.452-7.761,5.988-14.945,10.307-21.287c8.59-12.774,19.989-22.101,31.316-28.391
	c11.392-6.311,22.72-9.784,32.746-11.864c5.01-1.116,9.774-1.669,14.146-2.122c2.193-0.194,4.286-0.414,6.294-0.5
	c2.005-0.124,3.912-0.238,5.73-0.22c3.626-0.078,6.858,0.032,9.657,0.09c2.802,0.124,5.179,0.313,7.1,0.459
	c3.843,0.355,5.878,0.609,5.878,0.609s-2.042,0.311-5.843,0.774c-3.793,0.588-9.355,1.295-16.286,2.744
	c-6.926,1.401-15.272,3.327-24.377,6.558c-9.134,3.086-18.991,7.681-28.507,14.116c-9.5,6.424-18.479,15.098-25.082,25.959
	c-3.316,5.412-5.929,11.402-7.782,17.708c-1.793,6.32-2.775,13.013-2.571,19.682c0.251,6.62,1.529,13.352,4.418,18.812
	c1.438,2.697,3.196,5.082,5.217,6.741c1.012,0.82,2.055,1.543,3.168,2.004c1.073,0.486,2.413,0.788,3.136,0.936
	c6.624,0.503,13.331-0.948,19.572-4.052c6.293-3.084,12.212-7.797,18.044-13.048c5.846-5.261,11.582-11.128,18.013-16.715
	c6.404-5.549,13.726-10.922,22.447-14.139c4.351-1.609,8.923-2.559,13.616-2.812c4.441-0.268,9.333,0.192,13.865,1.625
	c4.563,1.422,8.861,3.863,12.329,7.062c3.484,3.188,6.193,7.02,8.076,11.079c3.712,8.156,4.616,17.046,2.692,25.427
	c-1.01,4.172-2.793,8.286-5.733,11.733c-2.884,3.46-7.105,6.022-11.466,6.861c-1.08,0.228-2.148,0.351-3.358,0.419
	c-0.547,0.027-0.901,0.01-1.359,0.017l-0.306-0.003l-0.179-0.01l-0.358-0.021l-0.713-0.042c-1.897-0.059-3.787-0.337-5.649-0.637
	c-3.722-0.726-7.288-1.99-10.507-3.638c-6.484-3.316-11.448-7.88-15.952-12.051c-4.5-4.227-8.66-8.184-12.905-11.599
	c-4.221-3.425-8.5-6.298-12.759-8.608c-8.524-4.644-16.826-7.045-23.719-8.546c-6.924-1.519-12.508-1.973-16.305-2.359
	C84.05,137.608,82.014,137.468,82.014,137.468z"/>
</svg>
